<?xml version="1.0" encoding="UTF-8"?>
<!DOCTYPE svg PUBLIC "-//W3C//DTD SVG 1.1//EN" "http://www.w3.org/Graphics/SVG/1.1/DTD/svg11.dtd">
<svg xmlns="http://www.w3.org/2000/svg" version="1.1" width="3000px" height="750px" style="shape-rendering:geometricPrecision; text-rendering:geometricPrecision; image-rendering:optimizeQuality; fill-rule:evenodd; clip-rule:evenodd" xmlns:xlink="http://www.w3.org/1999/xlink">
<g><path style="opacity:1" fill="#12006c" d="M -0.5,-0.5 C 249.5,-0.5 499.5,-0.5 749.5,-0.5C 749.333,117.167 749.5,234.834 750,352.5C 759.078,240.492 806.911,149.325 893.5,79C 955.394,31.5713 1025.39,5.07132 1103.5,-0.5C 1117.5,-0.5 1131.5,-0.5 1145.5,-0.5C 1277.28,11.2201 1378.12,72.8868 1448,184.5C 1466.79,216.413 1480.29,250.413 1488.5,286.5C 1488.47,293.489 1489.47,300.322 1491.5,307C 1489.83,311.345 1490.67,315.178 1494,318.5C 1495.96,331.419 1496.96,344.419 1497,357.5C 1498.68,370.81 1500.34,370.81 1502,357.5C 1503.05,339.696 1504.55,322.03 1506.5,304.5C 1528.7,196.183 1586.37,112.683 1679.5,54C 1733.26,22.022 1791.26,3.85536 1853.5,-0.5C 1867.5,-0.5 1881.5,-0.5 1895.5,-0.5C 2015.68,9.32439 2111.18,62.6577 2182,159.5C 2221.25,217.755 2244.08,281.755 2250.5,351.5C 2249.18,366.504 2249.18,381.504 2250.5,396.5C 2249.52,400.298 2249.18,404.298 2249.5,408.5C 2248.5,521.665 2248.17,634.999 2248.5,748.5C 2132.67,748.167 2017,748.5 1901.5,749.5C 1885.5,749.5 1869.5,749.5 1853.5,749.5C 1723.95,738.173 1624.12,678.173 1554,569.5C 1522.14,516.25 1504.14,458.584 1500,396.5C 1499.5,400.152 1499.33,403.818 1499.5,407.5C 1498.5,520.999 1498.17,634.665 1498.5,748.5C 1367.5,748.5 1236.5,748.5 1105.5,748.5C 989.736,740.543 896.236,691.21 825,600.5C 794.393,559.278 772.893,513.611 760.5,463.5C 758.745,447.639 756.245,431.973 753,416.5C 752.996,405.384 751.996,394.384 750,383.5C 749.667,386.833 749.333,390.167 749,393.5C 748.167,512.001 748.334,630.334 749.5,748.5C 749.5,748.833 749.5,749.167 749.5,749.5C 739.5,749.5 729.5,749.5 719.5,749.5C 517.259,737.945 345.759,659.945 205,515.5C 92.8689,395.875 26.3689,254.209 5.5,90.5C 4.26578,68.1656 3.09911,45.8323 2,23.5C 2.05334,20.3248 1.22001,17.6581 -0.5,15.5C -0.5,10.1667 -0.5,4.83333 -0.5,-0.5 Z"/></g>
<g><path style="opacity:1" fill="#424cf9" d="M 2602.5,-0.5 C 2609.83,-0.5 2617.17,-0.5 2624.5,-0.5C 2624.5,111.5 2624.5,223.5 2624.5,335.5C 2624.5,340.167 2624.5,344.833 2624.5,349.5C 2624.83,353.5 2625.17,353.5 2625.5,349.5C 2625.34,346.098 2625.68,342.764 2626.5,339.5C 2640.06,218.805 2697.06,124.971 2797.5,58C 2852.69,23.5485 2912.69,4.0485 2977.5,-0.5C 2984.83,-0.5 2992.17,-0.5 2999.5,-0.5C 2999.5,249.5 2999.5,499.5 2999.5,749.5C 2992.5,749.5 2985.5,749.5 2978.5,749.5C 2845.08,737.807 2743.58,675.14 2674,561.5C 2647,514.342 2631.17,463.676 2626.5,409.5C 2625.68,406.236 2625.34,402.902 2625.5,399.5C 2625.17,395.5 2624.83,395.5 2624.5,399.5C 2624.5,404.5 2624.5,409.5 2624.5,414.5C 2624.5,526.167 2624.5,637.833 2624.5,749.5C 2617.5,749.5 2610.5,749.5 2603.5,749.5C 2470.08,737.801 2368.58,675.134 2299,561.5C 2269.95,510.314 2253.79,455.314 2250.5,396.5C 2249.18,381.504 2249.18,366.504 2250.5,351.5C 2257.61,251.126 2297.61,166.626 2370.5,98C 2436.52,39.0323 2513.86,6.19898 2602.5,-0.5 Z"/></g>
<g><path style="opacity:1" fill="#11047d" d="M -0.5,15.5 C 1.22001,17.6581 2.05334,20.3248 2,23.5C 3.09911,45.8323 4.26578,68.1656 5.5,90.5C 2.79587,70.2314 0.795872,49.898 -0.5,29.5C -0.5,24.8333 -0.5,20.1667 -0.5,15.5 Z"/></g>
<g><path style="opacity:1" fill="#5e61a8" d="M 2624.5,335.5 C 2625.17,336.833 2625.83,338.167 2626.5,339.5C 2625.68,342.764 2625.34,346.098 2625.5,349.5C 2625.17,349.5 2624.83,349.5 2624.5,349.5C 2624.5,344.833 2624.5,340.167 2624.5,335.5 Z"/></g>
<g><path style="opacity:1" fill="#12047b" d="M 1488.5,286.5 C 1494.1,308.377 1497.77,330.711 1499.5,353.5C 1501.01,336.912 1503.35,320.579 1506.5,304.5C 1504.55,322.03 1503.05,339.696 1502,357.5C 1500.34,370.81 1498.68,370.81 1497,357.5C 1496.96,344.419 1495.96,331.419 1494,318.5C 1490.67,315.178 1489.83,311.345 1491.5,307C 1489.47,300.322 1488.47,293.489 1488.5,286.5 Z"/></g>
<g><path style="opacity:1" fill="#5b60a6" d="M 2624.5,399.5 C 2624.83,399.5 2625.17,399.5 2625.5,399.5C 2625.34,402.902 2625.68,406.236 2626.5,409.5C 2625.83,411.167 2625.17,412.833 2624.5,414.5C 2624.5,409.5 2624.5,404.5 2624.5,399.5 Z"/></g>
<g><path style="opacity:1" fill="#0b017b" d="M 760.5,463.5 C 754.965,441.283 751.465,418.617 750,395.5C 749.5,513.166 749.333,630.833 749.5,748.5C 748.334,630.334 748.167,512.001 749,393.5C 749.333,390.167 749.667,386.833 750,383.5C 751.996,394.384 752.996,405.384 753,416.5C 756.245,431.973 758.745,447.639 760.5,463.5 Z"/></g>
<g><path style="opacity:1" fill="#0b017d" d="M 1499.5,407.5 C 1499.5,521.5 1499.5,635.5 1499.5,749.5C 1368.17,749.5 1236.83,749.5 1105.5,749.5C 1105.5,749.167 1105.5,748.833 1105.5,748.5C 1236.5,748.5 1367.5,748.5 1498.5,748.5C 1498.17,634.665 1498.5,520.999 1499.5,407.5 Z"/></g>
<g><path style="opacity:1" fill="#0a007b" d="M 2249.5,408.5 C 2249.5,522.167 2249.5,635.833 2249.5,749.5C 2133.5,749.5 2017.5,749.5 1901.5,749.5C 2017,748.5 2132.67,748.167 2248.5,748.5C 2248.17,634.999 2248.5,521.665 2249.5,408.5 Z"/></g>
</svg>
