<?xml version="1.0" encoding="UTF-8"?>
<!DOCTYPE svg PUBLIC "-//W3C//DTD SVG 1.1//EN" "http://www.w3.org/Graphics/SVG/1.1/DTD/svg11.dtd">
<svg xmlns="http://www.w3.org/2000/svg" version="1.1" width="3000px" height="4500px" style="shape-rendering:geometricPrecision; text-rendering:geometricPrecision; image-rendering:optimizeQuality; fill-rule:evenodd; clip-rule:evenodd" xmlns:xlink="http://www.w3.org/1999/xlink">
<g><path style="opacity:1" fill="#12006c" d="M -0.5,-0.5 C 249.5,-0.5 499.5,-0.5 749.5,-0.5C 749.333,117.167 749.5,234.834 750,352.5C 759.078,240.492 806.911,149.325 893.5,79C 955.394,31.5713 1025.39,5.07132 1103.5,-0.5C 1117.5,-0.5 1131.5,-0.5 1145.5,-0.5C 1277.28,11.2201 1378.12,72.8868 1448,184.5C 1466.79,216.413 1480.29,250.413 1488.5,286.5C 1488.47,293.489 1489.47,300.322 1491.5,307C 1489.83,311.345 1490.67,315.178 1494,318.5C 1495.96,331.419 1496.96,344.419 1497,357.5C 1498.68,370.81 1500.34,370.81 1502,357.5C 1503.05,339.696 1504.55,322.03 1506.5,304.5C 1528.7,196.183 1586.37,112.683 1679.5,54C 1733.26,22.022 1791.26,3.85536 1853.5,-0.5C 1867.5,-0.5 1881.5,-0.5 1895.5,-0.5C 2015.68,9.32439 2111.18,62.6577 2182,159.5C 2221.25,217.755 2244.08,281.755 2250.5,351.5C 2249.18,366.504 2249.18,381.504 2250.5,396.5C 2249.52,400.298 2249.18,404.298 2249.5,408.5C 2248.5,521.665 2248.17,634.999 2248.5,748.5C 2132.67,748.167 2017,748.5 1901.5,749.5C 1899.47,749.338 1897.47,749.505 1895.5,750C 2025.29,760.935 2125.12,820.768 2195,929.5C 2227.28,983.359 2245.28,1041.69 2249,1104.5C 2249.5,1236.17 2249.67,1367.83 2249.5,1499.5C 2115.5,1499.5 1981.5,1499.5 1847.5,1499.5C 1715.09,1485.25 1614.93,1421.25 1547,1307.5C 1493.32,1206.36 1485.32,1101.7 1523,993.5C 1567.13,883.041 1645.29,807.874 1757.5,768C 1788.77,758.08 1820.77,751.913 1853.5,749.5C 1723.81,738.114 1623.98,678.114 1554,569.5C 1522.14,516.25 1504.14,458.584 1500,396.5C 1499.5,400.152 1499.33,403.818 1499.5,407.5C 1498.5,520.999 1498.17,634.665 1498.5,748.5C 1367.5,748.5 1236.5,748.5 1105.5,748.5C 989.736,740.543 896.236,691.21 825,600.5C 794.393,559.278 772.893,513.611 760.5,463.5C 758.745,447.639 756.245,431.973 753,416.5C 752.996,405.384 751.996,394.384 750,383.5C 749.667,386.833 749.333,390.167 749,393.5C 748.167,512.001 748.334,630.334 749.5,748.5C 749.5,748.833 749.5,749.167 749.5,749.5C 749.5,883.5 749.5,1017.5 749.5,1151.5C 735.252,1283.91 671.252,1384.08 557.5,1452C 508.065,1479.02 455.399,1494.85 399.5,1499.5C 382.833,1499.5 366.167,1499.5 349.5,1499.5C 229.794,1487.92 134.961,1433.58 65,1336.5C 25.7196,1278.49 3.8863,1214.49 -0.5,1144.5C -0.5,1130.83 -0.5,1117.17 -0.5,1103.5C 9.84537,983.612 63.1787,888.112 159.5,817C 211.37,781.206 268.703,759.706 331.5,752.5C 339.853,752.383 348.187,751.883 356.5,751C 472.001,750.833 587.334,750.333 702.5,749.5C 708.176,749.666 713.843,749.499 719.5,749C 509.734,737.351 333.9,654.851 192,501.5C 87.7091,384.208 25.5425,247.208 5.5,90.5C 4.26578,68.1656 3.09911,45.8323 2,23.5C 2.05334,20.3248 1.22001,17.6581 -0.5,15.5C -0.5,10.1667 -0.5,4.83333 -0.5,-0.5 Z M 760.5,463.5 C 772.893,513.611 794.393,559.278 825,600.5C 896.236,691.21 989.736,740.543 1105.5,748.5C 1236.67,749.5 1368,749.833 1499.5,749.5C 1499.5,635.5 1499.5,521.5 1499.5,407.5C 1499.33,403.818 1499.5,400.152 1500,396.5C 1504.14,458.584 1522.14,516.25 1554,569.5C 1623.98,678.114 1723.81,738.114 1853.5,749.5C 1820.77,751.913 1788.77,758.08 1757.5,768C 1645.29,807.874 1567.13,883.041 1523,993.5C 1485.32,1101.7 1493.32,1206.36 1547,1307.5C 1614.93,1421.25 1715.09,1485.25 1847.5,1499.5C 1731.5,1499.5 1615.5,1499.5 1499.5,1499.5C 1497.04,1303.72 1430.54,1133.72 1300,989.5C 1150.52,833.117 967.024,753.117 749.5,749.5C 749.5,749.167 749.5,748.833 749.5,748.5C 749.333,630.833 749.5,513.166 750,395.5C 751.465,418.617 754.965,441.283 760.5,463.5 Z M 749.5,1151.5 C 749.5,1267.5 749.5,1383.5 749.5,1499.5C 632.833,1499.5 516.167,1499.5 399.5,1499.5C 455.399,1494.85 508.065,1479.02 557.5,1452C 671.252,1384.08 735.252,1283.91 749.5,1151.5 Z"/></g>
<g><path style="opacity:1" fill="#424cf9" d="M 2602.5,-0.5 C 2609.83,-0.5 2617.17,-0.5 2624.5,-0.5C 2624.5,111.5 2624.5,223.5 2624.5,335.5C 2624.5,340.167 2624.5,344.833 2624.5,349.5C 2624.83,353.5 2625.17,353.5 2625.5,349.5C 2625.34,346.098 2625.68,342.764 2626.5,339.5C 2640.06,218.805 2697.06,124.971 2797.5,58C 2852.69,23.5485 2912.69,4.0485 2977.5,-0.5C 2984.83,-0.5 2992.17,-0.5 2999.5,-0.5C 2999.5,249.5 2999.5,499.5 2999.5,749.5C 2992.46,749.72 2985.46,749.386 2978.5,748.5C 2861.04,739.701 2766.88,688.701 2696,595.5C 2655.98,539.968 2632.82,477.968 2626.5,409.5C 2625.68,406.236 2625.34,402.902 2625.5,399.5C 2625.17,395.5 2624.83,395.5 2624.5,399.5C 2624.5,404.5 2624.5,409.5 2624.5,414.5C 2624.5,526.167 2624.5,637.833 2624.5,749.5C 2498.29,746.481 2397.12,695.148 2321,595.5C 2278.17,536.201 2254.67,469.868 2250.5,396.5C 2249.18,381.504 2249.18,366.504 2250.5,351.5C 2257.61,251.126 2297.61,166.626 2370.5,98C 2436.52,39.0323 2513.86,6.19898 2602.5,-0.5 Z"/></g>
<g><path style="opacity:1" fill="#11047d" d="M -0.5,15.5 C 1.22001,17.6581 2.05334,20.3248 2,23.5C 3.09911,45.8323 4.26578,68.1656 5.5,90.5C 2.79587,70.2314 0.795872,49.898 -0.5,29.5C -0.5,24.8333 -0.5,20.1667 -0.5,15.5 Z"/></g>
<g><path style="opacity:1" fill="#5e61a8" d="M 2624.5,335.5 C 2625.17,336.833 2625.83,338.167 2626.5,339.5C 2625.68,342.764 2625.34,346.098 2625.5,349.5C 2625.17,349.5 2624.83,349.5 2624.5,349.5C 2624.5,344.833 2624.5,340.167 2624.5,335.5 Z"/></g>
<g><path style="opacity:1" fill="#12047b" d="M 1488.5,286.5 C 1494.1,308.377 1497.77,330.711 1499.5,353.5C 1501.01,336.912 1503.35,320.579 1506.5,304.5C 1504.55,322.03 1503.05,339.696 1502,357.5C 1500.34,370.81 1498.68,370.81 1497,357.5C 1496.96,344.419 1495.96,331.419 1494,318.5C 1490.67,315.178 1489.83,311.345 1491.5,307C 1489.47,300.322 1488.47,293.489 1488.5,286.5 Z"/></g>
<g><path style="opacity:1" fill="#5b60a6" d="M 2624.5,399.5 C 2624.83,399.5 2625.17,399.5 2625.5,399.5C 2625.34,402.902 2625.68,406.236 2626.5,409.5C 2625.83,411.167 2625.17,412.833 2624.5,414.5C 2624.5,409.5 2624.5,404.5 2624.5,399.5 Z"/></g>
<g><path style="opacity:1" fill="#0b017b" d="M 760.5,463.5 C 754.965,441.283 751.465,418.617 750,395.5C 749.5,513.166 749.333,630.833 749.5,748.5C 748.334,630.334 748.167,512.001 749,393.5C 749.333,390.167 749.667,386.833 750,383.5C 751.996,394.384 752.996,405.384 753,416.5C 756.245,431.973 758.745,447.639 760.5,463.5 Z"/></g>
<g><path style="opacity:1" fill="#0b017d" d="M 1499.5,407.5 C 1499.5,521.5 1499.5,635.5 1499.5,749.5C 1368,749.833 1236.67,749.5 1105.5,748.5C 1236.5,748.5 1367.5,748.5 1498.5,748.5C 1498.17,634.665 1498.5,520.999 1499.5,407.5 Z"/></g>
<g><path style="opacity:1" fill="#0a007b" d="M 2249.5,408.5 C 2249.5,522.167 2249.5,635.833 2249.5,749.5C 2133.5,749.5 2017.5,749.5 1901.5,749.5C 2017,748.5 2132.67,748.167 2248.5,748.5C 2248.17,634.999 2248.5,521.665 2249.5,408.5 Z"/></g>
<g><path style="opacity:1" fill="#0c017c" d="M 702.5,749.5 C 587.334,750.333 472.001,750.833 356.5,751C 348.187,751.883 339.853,752.383 331.5,752.5C 339.306,751.242 347.306,750.408 355.5,750C 471.166,749.5 586.833,749.333 702.5,749.5 Z"/></g>
<g><path style="opacity:1" fill="#424cf9" d="M 749.5,749.5 C 967.024,753.117 1150.52,833.117 1300,989.5C 1430.54,1133.72 1497.04,1303.72 1499.5,1499.5C 1365.83,1499.5 1232.17,1499.5 1098.5,1499.5C 982.167,1499.5 865.833,1499.5 749.5,1499.5C 749.5,1383.5 749.5,1267.5 749.5,1151.5C 749.5,1017.5 749.5,883.5 749.5,749.5 Z"/></g>
<g><path style="opacity:1" fill="#12006c" d="M 2978.5,748.5 C 2985.46,749.386 2992.46,749.72 2999.5,749.5C 2999.5,999.5 2999.5,1249.5 2999.5,1499.5C 2880.43,1496.92 2782.93,1450.25 2707,1359.5C 2664.18,1305.51 2638.02,1244.17 2628.5,1175.5C 2626.34,1144.52 2626,1113.52 2627.5,1082.5C 2639.94,980.432 2685.6,896.932 2764.5,832C 2827.4,783.08 2898.73,755.247 2978.5,748.5 Z"/></g>
<g><path style="opacity:1" fill="#0f037f" d="M 2627.5,1082.5 C 2626,1113.52 2626.34,1144.52 2628.5,1175.5C 2623.66,1144.54 2623.33,1113.54 2627.5,1082.5 Z"/></g>
<g><path style="opacity:1" fill="#424cf9" d="M -0.5,1499.5 C 116.167,1499.5 232.833,1499.5 349.5,1499.5C 366.167,1499.5 382.833,1499.5 399.5,1499.5C 516.167,1499.5 632.833,1499.5 749.5,1499.5C 746.485,1625.7 695.152,1726.87 595.5,1803C 498.572,1870.32 392.572,1889.98 277.5,1862C 154.37,1825.69 69.2033,1747.86 22,1628.5C 9.80361,1593.68 2.30361,1558.01 -0.5,1521.5C -0.5,1514.17 -0.5,1506.83 -0.5,1499.5 Z"/></g>
<g><path style="opacity:1" fill="#424cf8" d="M 1499.5,1499.5 C 1615.5,1499.5 1731.5,1499.5 1847.5,1499.5C 1981.5,1499.5 2115.5,1499.5 2249.5,1499.5C 2249.33,1614.17 2249.5,1728.83 2250,1843.5C 2265.6,1709.35 2331.77,1609.18 2448.5,1543C 2547.17,1493.12 2648.84,1486.12 2753.5,1522C 2872.85,1569.16 2950.68,1654.33 2987,1777.5C 2993.35,1802.28 2997.52,1827.28 2999.5,1852.5C 2999.5,1984.83 2999.5,2117.17 2999.5,2249.5C 2991.17,2249.5 2982.83,2249.5 2974.5,2249.5C 2850.83,2249.67 2727.17,2249.5 2603.5,2249C 2481.21,2239.21 2384.71,2184.71 2314,2085.5C 2277.61,2031.01 2256.28,1971.01 2250,1905.5C 2249.5,2020.17 2249.33,2134.83 2249.5,2249.5C 2011.5,2249.5 1773.5,2249.5 1535.5,2249.5C 1523.5,2249.5 1511.5,2249.5 1499.5,2249.5C 1499.5,2132.83 1499.5,2016.17 1499.5,1899.5C 1499.5,1895.5 1499.5,1891.5 1499.5,1887.5C 1499.5,1758.17 1499.5,1628.83 1499.5,1499.5 Z"/></g>
<g><path style="opacity:1" fill="#12006c" d="M 1098.5,1500.5 C 1231.5,1500.33 1364.5,1500.5 1497.5,1501C 1498.17,1629.93 1498.83,1758.76 1499.5,1887.5C 1499.5,1891.5 1499.5,1895.5 1499.5,1899.5C 1486.43,2029.54 1424.76,2129.04 1314.5,2198C 1216.93,2252.69 1114.6,2263.69 1007.5,2231C 889.721,2189.22 809.888,2109.39 768,1991.5C 730.067,1863.07 751.401,1745.74 832,1639.5C 901.283,1556.44 990.117,1510.1 1098.5,1500.5 Z"/></g>
<g><path style="opacity:1" fill="#110454" d="M 1098.5,1500.5 C 1098.5,1500.17 1098.5,1499.83 1098.5,1499.5C 1232.17,1499.5 1365.83,1499.5 1499.5,1499.5C 1499.5,1628.83 1499.5,1758.17 1499.5,1887.5C 1498.83,1758.76 1498.17,1629.93 1497.5,1501C 1364.5,1500.5 1231.5,1500.33 1098.5,1500.5 Z"/></g>
<g><path style="opacity:1" fill="#424cf9" d="M 749.5,2964.5 C 749.5,2976.17 749.5,2987.83 749.5,2999.5C 635.166,2999.33 520.833,2999.5 406.5,3000C 539.208,3015.88 638.708,3081.38 705,3196.5C 734.572,3252.12 749.406,3311.46 749.5,3374.5C 637.167,3374.5 524.833,3374.5 412.5,3374.5C 408.167,3374.5 403.833,3374.5 399.5,3374.5C 395.5,3374.83 395.5,3375.17 399.5,3375.5C 402.902,3375.34 406.236,3375.68 409.5,3376.5C 530.195,3390.06 624.029,3447.06 691,3547.5C 729.617,3609.2 749.117,3676.53 749.5,3749.5C 632.833,3749.5 516.167,3749.5 399.5,3749.5C 266.167,3749.5 132.833,3749.5 -0.5,3749.5C -0.5,3742.17 -0.5,3734.83 -0.5,3727.5C 8.86995,3612.42 58.8699,3519.58 149.5,3449C 205.851,3407.04 269.184,3382.88 339.5,3376.5C 342.764,3375.68 346.098,3375.34 349.5,3375.5C 352.167,3375.17 352.167,3374.83 349.5,3374.5C 344.833,3374.5 340.167,3374.5 335.5,3374.5C 223.5,3374.5 111.5,3374.5 -0.5,3374.5C -0.5,3367.17 -0.5,3359.83 -0.5,3352.5C 10.4671,3228.02 67.1338,3130.52 169.5,3060C 225.168,3024.06 286.168,3004.22 352.5,3000.5C 357.629,2999.39 357.629,2998.72 352.5,2998.5C 251.72,2991.69 166.887,2951.69 98,2878.5C 39.0316,2812.47 6.19831,2735.14 -0.5,2646.5C -0.5,2631.83 -0.5,2617.17 -0.5,2602.5C 9.47697,2485.69 60.8103,2391.86 153.5,2321C 254.232,2251.27 363.899,2232.6 482.5,2265C 592.13,2300.63 670.963,2370.8 719,2475.5C 736.552,2516.37 746.552,2559.04 749,2603.5C 749.5,2723.83 749.667,2844.17 749.5,2964.5 Z"/></g>
<g><path style="opacity:1" fill="#12006c" d="M 1499.5,2249.5 C 1511.5,2249.5 1523.5,2249.5 1535.5,2249.5C 1768.29,2266.13 1956.12,2365.79 2099,2548.5C 2179.11,2655.59 2227.28,2775.92 2243.5,2909.5C 2245.34,2939.66 2247.34,2969.66 2249.5,2999.5C 2249.32,3006.87 2249.65,3014.2 2250.5,3021.5C 2239.38,3238.22 2153.71,3419.06 1993.5,3564C 1869.1,3671.67 1724.43,3732.5 1559.5,3746.5C 1550.8,3746.78 1542.13,3746.44 1533.5,3745.5C 1522.36,3748.03 1511.03,3749.03 1499.5,3748.5C 1479.5,3747.88 1459.5,3747.22 1439.5,3746.5C 1248.78,3729.38 1087.28,3652.38 955,3515.5C 820.48,3370.56 751.98,3198.56 749.5,2999.5C 749.5,2987.83 749.5,2976.17 749.5,2964.5C 763.736,2751.88 849.736,2574.71 1007.5,2433C 1148.84,2312.81 1312.84,2251.64 1499.5,2249.5 Z"/></g>
<g><path style="opacity:1" fill="#12006c" d="M 2974.5,2249.5 C 2982.83,2249.5 2991.17,2249.5 2999.5,2249.5C 2999.5,2499.5 2999.5,2749.5 2999.5,2999.5C 2991.17,2999.5 2982.83,2999.5 2974.5,2999.5C 2856.27,2987.99 2762.1,2934.65 2692,2839.5C 2655.97,2787.4 2634.47,2729.74 2627.5,2666.5C 2626.44,2642.84 2626.28,2619.18 2627,2595.5C 2627.51,2593.12 2628.18,2590.79 2629,2588.5C 2629.25,2589.62 2629.75,2590.62 2630.5,2591.5C 2631.23,2589.66 2631.9,2587.83 2632.5,2586C 2631.42,2583.18 2630.25,2583.01 2629,2585.5C 2628.41,2576.61 2629.58,2567.95 2632.5,2559.5C 2634.13,2560.74 2635.13,2560.24 2635.5,2558C 2634.27,2554.61 2633.43,2554.78 2633,2558.5C 2632.33,2556.17 2632.33,2553.83 2633,2551.5C 2634,2549.83 2635,2548.17 2636,2546.5C 2636.1,2548.62 2636.93,2550.29 2638.5,2551.5C 2638.83,2550.5 2639.17,2549.5 2639.5,2548.5C 2637.24,2539.53 2637.24,2530.53 2639.5,2521.5C 2667.13,2428.06 2722.13,2355.56 2804.5,2304C 2857.05,2272.87 2913.71,2254.71 2974.5,2249.5 Z"/></g>
<g><path style="opacity:1" fill="#100278" d="M 2639.5,2521.5 C 2637.24,2530.53 2637.24,2539.53 2639.5,2548.5C 2639.17,2549.5 2638.83,2550.5 2638.5,2551.5C 2636.93,2550.29 2636.1,2548.62 2636,2546.5C 2635,2548.17 2634,2549.83 2633,2551.5C 2632.33,2553.83 2632.33,2556.17 2633,2558.5C 2633.43,2554.78 2634.27,2554.61 2635.5,2558C 2635.13,2560.24 2634.13,2560.74 2632.5,2559.5C 2629.58,2567.95 2628.41,2576.61 2629,2585.5C 2630.25,2583.01 2631.42,2583.18 2632.5,2586C 2631.9,2587.83 2631.23,2589.66 2630.5,2591.5C 2629.75,2590.62 2629.25,2589.62 2629,2588.5C 2628.18,2590.79 2627.51,2593.12 2627,2595.5C 2626.28,2619.18 2626.44,2642.84 2627.5,2666.5C 2621.34,2617.34 2625.34,2569.01 2639.5,2521.5 Z"/></g>
<g><path style="opacity:1" fill="#0f037d" d="M 2243.5,2909.5 C 2247.55,2939.21 2249.55,2969.21 2249.5,2999.5C 2247.34,2969.66 2245.34,2939.66 2243.5,2909.5 Z"/></g>
<g><path style="opacity:1" fill="#9fa1d1" d="M 352.5,2998.5 C 357.629,2998.72 357.629,2999.39 352.5,3000.5C 352.5,2999.83 352.5,2999.17 352.5,2998.5 Z"/></g>
<g><path style="opacity:1" fill="#424cf9" d="M 2249.5,2999.5 C 2491.17,2999.5 2732.83,2999.5 2974.5,2999.5C 2982.83,2999.5 2991.17,2999.5 2999.5,2999.5C 2999.5,3006.83 2999.5,3014.17 2999.5,3021.5C 2987,3158.73 2921.34,3261.56 2802.5,3330C 2700.3,3382.18 2595.3,3388.51 2487.5,3349C 2383.15,3305.65 2310.98,3231.15 2271,3125.5C 2259.1,3091.82 2252.26,3057.16 2250.5,3021.5C 2249.65,3014.2 2249.32,3006.87 2249.5,2999.5 Z"/></g>
<g><path style="opacity:1" fill="#5e60a6" d="M 335.5,3374.5 C 340.167,3374.5 344.833,3374.5 349.5,3374.5C 349.5,3374.83 349.5,3375.17 349.5,3375.5C 346.098,3375.34 342.764,3375.68 339.5,3376.5C 338.167,3375.83 336.833,3375.17 335.5,3374.5 Z"/></g>
<g><path style="opacity:1" fill="#5d60a7" d="M 399.5,3375.5 C 399.5,3375.17 399.5,3374.83 399.5,3374.5C 403.833,3374.5 408.167,3374.5 412.5,3374.5C 411.5,3375.17 410.5,3375.83 409.5,3376.5C 406.236,3375.68 402.902,3375.34 399.5,3375.5 Z"/></g>
<g><path style="opacity:1" fill="#100682" d="M 1559.5,3746.5 C 1519.5,3750.49 1479.5,3750.49 1439.5,3746.5C 1459.5,3747.22 1479.5,3747.88 1499.5,3748.5C 1511.03,3749.03 1522.36,3748.03 1533.5,3745.5C 1542.13,3746.44 1550.8,3746.78 1559.5,3746.5 Z"/></g>
<g><path style="opacity:1" fill="#424cf8" d="M 2999.5,3749.5 C 2999.5,3999.5 2999.5,4249.5 2999.5,4499.5C 2749.5,4499.5 2499.5,4499.5 2249.5,4499.5C 2249.67,4385.83 2249.5,4272.17 2249,4158.5C 2232.56,4290.29 2167.06,4389.13 2052.5,4455C 2005.61,4479.47 1955.94,4494.3 1903.5,4499.5C 1902.83,4499.5 1902.17,4499.5 1901.5,4499.5C 1899.83,4498.17 1898.17,4498.17 1896.5,4499.5C 1881.83,4499.5 1867.17,4499.5 1852.5,4499.5C 1850.83,4498.17 1849.17,4498.17 1847.5,4499.5C 1847.17,4499.5 1846.83,4499.5 1846.5,4499.5C 1720.82,4486.11 1623.65,4426.77 1555,4321.5C 1518.3,4261.05 1499.8,4195.38 1499.5,4124.5C 1499.5,4117.5 1499.5,4110.5 1499.5,4103.5C 1510.33,3974.62 1569.66,3875.12 1677.5,3805C 1781.05,3744.42 1889.72,3733.42 2003.5,3772C 2121.46,3818.42 2198.96,3902.26 2236,4023.5C 2241.88,4046.23 2246.21,4069.23 2249,4092.5C 2249.5,3978.17 2249.67,3863.83 2249.5,3749.5C 2499.5,3749.5 2749.5,3749.5 2999.5,3749.5 Z"/></g>
<g><path style="opacity:1" fill="#12006c" d="M -0.5,3749.5 C 132.833,3749.5 266.167,3749.5 399.5,3749.5C 519.206,3761.08 614.039,3815.42 684,3912.5C 722.619,3970.18 744.452,4033.85 749.5,4103.5C 759.998,3981.95 814.332,3885.78 912.5,3815C 1001.88,3756.12 1099.21,3737.12 1204.5,3758C 1325.87,3787.71 1413.37,3858.88 1467,3971.5C 1485.36,4013.63 1496.2,4057.63 1499.5,4103.5C 1499.5,4110.5 1499.5,4117.5 1499.5,4124.5C 1381.83,4124.33 1264.17,4124.5 1146.5,4125C 1270.67,4135.47 1367.84,4191.64 1438,4293.5C 1478.56,4356.03 1499.06,4424.7 1499.5,4499.5C 1249.83,4499.5 1000.17,4499.5 750.5,4499.5C 751.726,4485.53 752.559,4471.53 753,4457.5C 755.693,4442.2 758.193,4426.87 760.5,4411.5C 786.594,4309.26 844.594,4230.76 934.5,4176C 986.777,4145.69 1043.11,4128.69 1103.5,4125C 985.5,4124.5 867.5,4124.33 749.5,4124.5C 746.947,4240.42 702.28,4336.25 615.5,4412C 551.508,4464.17 478.175,4493.34 395.5,4499.5C 381.5,4499.5 367.5,4499.5 353.5,4499.5C 231.6,4488.98 135.1,4434.32 64,4335.5C 25.6272,4277.88 4.12717,4214.55 -0.5,4145.5C -0.5,4013.5 -0.5,3881.5 -0.5,3749.5 Z"/></g>
<g><path style="opacity:1" fill="#0f037e" d="M 760.5,4411.5 C 758.193,4426.87 755.693,4442.2 753,4457.5C 752.559,4471.53 751.726,4485.53 750.5,4499.5C 750.167,4499.5 749.833,4499.5 749.5,4499.5C 749.41,4469.56 753.076,4440.22 760.5,4411.5 Z"/></g>
</svg>
