<?xml version="1.0" standalone="no"?>
<!DOCTYPE svg PUBLIC "-//W3C//DTD SVG 20010904//EN"
 "http://www.w3.org/TR/2001/REC-SVG-20010904/DTD/svg10.dtd">
<svg version="1.0" xmlns="http://www.w3.org/2000/svg"
 width="432.000000pt" height="432.000000pt" viewBox="0 0 432.000000 432.000000"
 preserveAspectRatio="xMidYMid meet">

<g transform="translate(0.000000,432.000000) scale(0.100000,-0.100000)"
fill="#000000" stroke="none">
<path d="M2015 4314 c-680 -55 -1278 -403 -1650 -959 -85 -127 -199 -352 -230
-453 -6 -22 -5 -23 36 -20 l42 3 53 118 c167 375 414 669 749 892 240 160 501
265 802 321 117 21 441 30 569 15 621 -73 1168 -409 1506 -926 54 -82 147
-260 197 -377 19 -46 21 -48 61 -48 47 0 47 -2 3 105 -289 699 -934 1200
-1684 1310 -109 15 -363 26 -454 19z"/>
<path d="M1500 2176 l0 -466 65 0 65 0 0 308 0 308 330 -328 330 -328 0 470 0
470 -70 0 -70 0 0 -306 c0 -302 0 -306 -19 -283 -10 13 -156 158 -325 323
l-306 298 0 -466z"/>
<path d="M353 2605 c-179 -48 -313 -196 -344 -377 -37 -222 115 -455 336 -512
215 -57 436 48 533 251 36 76 37 81 37 193 0 112 -1 117 -37 190 -100 204
-319 310 -525 255z m253 -151 c66 -33 115 -83 151 -154 24 -47 27 -67 28 -140
0 -71 -5 -94 -26 -140 -53 -112 -155 -182 -276 -188 -132 -7 -238 51 -301 166
-98 180 -13 405 180 474 73 26 172 19 244 -18z"/>
<path d="M1050 2460 l0 -160 55 0 55 0 0 160 0 160 -55 0 -55 0 0 -160z"/>
<path d="M3110 2346 l0 -116 -45 0 -45 0 0 -50 0 -50 45 0 45 0 0 -210 0 -210
55 0 55 0 0 210 0 209 68 3 67 3 0 45 0 45 -67 3 -67 3 -3 112 -3 112 -52 3
-53 3 0 -115z"/>
<path d="M2610 2231 c-126 -39 -212 -168 -196 -295 13 -101 94 -201 184 -226
106 -29 226 1 289 74 58 65 68 93 68 186 0 75 -3 91 -27 132 -35 58 -88 103
-147 123 -47 16 -129 19 -171 6z m161 -116 c76 -40 105 -163 56 -236 -26 -39
-97 -79 -142 -79 -45 1 -109 34 -135 70 -15 21 -25 52 -28 85 -11 137 124 224
249 160z"/>
<path d="M3575 2225 c-55 -21 -110 -67 -142 -122 -36 -63 -44 -171 -16 -234
27 -60 66 -104 122 -137 41 -24 56 -27 136 -27 81 0 95 3 143 29 28 16 52 32
52 36 0 3 -16 21 -34 39 l-35 34 -50 -22 c-58 -24 -99 -27 -144 -7 -31 13 -95
72 -86 79 2 2 90 38 194 79 110 44 191 82 193 90 5 26 -62 112 -112 142 -39
25 -61 31 -115 33 -40 1 -82 -3 -106 -12z m174 -112 c13 -11 26 -24 28 -29 4
-13 -271 -126 -275 -113 -6 15 18 76 40 105 48 61 150 79 207 37z"/>
<path d="M4080 2229 c-69 -28 -110 -106 -91 -177 14 -49 49 -81 139 -126 79
-40 91 -54 74 -91 -16 -35 -68 -42 -126 -17 l-46 21 -30 -37 -31 -37 26 -22
c48 -42 163 -57 229 -29 18 8 46 31 62 51 23 30 28 48 28 89 0 71 -27 107
-112 147 -112 53 -138 91 -86 126 25 16 57 13 114 -11 18 -7 66 57 55 75 -24
38 -147 61 -205 38z"/>
<path d="M135 1418 c15 -48 59 -147 112 -250 273 -536 776 -939 1365 -1093
201 -52 334 -69 548 -69 211 0 341 17 545 69 647 166 1191 639 1448 1260 44
107 44 105 -3 105 -40 0 -42 -2 -61 -47 -50 -118 -143 -296 -197 -378 -335
-512 -878 -849 -1492 -925 -109 -13 -371 -13 -480 1 -584 72 -1107 382 -1445
855 -80 112 -146 229 -209 371 l-53 118 -42 3 c-41 3 -42 2 -36 -20z"/>
</g>
</svg>
