<svg width="40" height="40" viewBox="0 0 40 40" fill="none" xmlns="http://www.w3.org/2000/svg">
<path d="M29.2973 7.38683L25.964 5.63683C23.0373 4.10183 21.574 3.3335 20.0007 3.3335C18.4273 3.3335 16.964 4.10016 14.0373 5.63683L10.704 7.38683C7.74899 8.93683 6.01065 9.85016 4.93398 11.0702L20.0007 18.6035L35.0673 11.0702C33.9907 9.85016 32.254 8.93683 29.2973 7.38683ZM36.2473 13.2735L21.2507 20.7735V36.5068C22.4473 36.2085 23.809 35.4952 25.964 34.3635L29.2973 32.6135C32.8823 30.7318 34.6757 29.7918 35.6723 28.1002C36.6673 26.4102 36.6673 24.3052 36.6673 20.1002V19.9052C36.6673 16.7502 36.6673 14.7768 36.2473 13.2735ZM18.7507 36.5068V20.7735L3.75398 13.2735C3.33398 14.7768 3.33398 16.7502 3.33398 19.9018V20.0968C3.33398 24.3052 3.33398 26.4102 4.32898 28.1002C5.32565 29.7918 7.11898 30.7335 10.704 32.6152L14.0373 34.3635C16.1923 35.4952 17.554 36.2085 18.7507 36.5068Z" fill="#0E0A1B"/>
</svg>
