<svg width="21" height="22" viewBox="0 0 21 22" fill="none" xmlns="http://www.w3.org/2000/svg">
<path d="M14.9017 6.38903C14.8156 6.29874 14.7072 6.23535 14.5886 6.20596C14.47 6.17658 14.346 6.18236 14.2304 6.22265L8.32411 8.28515C8.22738 8.31894 8.13949 8.37585 8.06738 8.45139C7.99528 8.52692 7.94096 8.619 7.90871 8.72034L5.93996 14.9078C5.90139 15.029 5.8958 15.159 5.92379 15.2832C5.95179 15.4075 6.01227 15.5212 6.09846 15.6115C6.18465 15.7018 6.29314 15.7651 6.41177 15.7945C6.5304 15.8238 6.65448 15.8179 6.77011 15.7775L12.6764 13.715C12.7731 13.6812 12.861 13.6243 12.9331 13.5488C13.0052 13.4733 13.0595 13.3812 13.0918 13.2798L15.0605 7.09234C15.099 6.97122 15.1045 6.84127 15.0764 6.71706C15.0484 6.59284 14.9879 6.47925 14.9017 6.38903ZM7.60027 14.0388L9.05058 9.48209L11.9505 12.5202L7.60027 14.0388Z" fill="#F2F2F2"/>
<path d="M10.5 20.625C8.68289 20.625 6.90658 20.0605 5.3957 19.0029C3.88483 17.9453 2.70724 16.4421 2.01186 14.6833C1.31648 12.9246 1.13454 10.9893 1.48904 9.12226C1.84354 7.25519 2.71857 5.54018 4.00346 4.1941C5.28836 2.84802 6.92541 1.93133 8.70761 1.55995C10.4898 1.18856 12.3371 1.37917 14.0159 2.10766C15.6947 2.83616 17.1296 4.06982 18.1391 5.65264C19.1487 7.23546 19.6875 9.09636 19.6875 11C19.6847 13.5518 18.7159 15.9983 16.9935 17.8027C15.2711 19.6071 12.9358 20.6221 10.5 20.625ZM10.5 2.75C8.94248 2.75 7.41993 3.23386 6.12489 4.14038C4.82985 5.0469 3.82049 6.33538 3.22445 7.84287C2.62841 9.35036 2.47246 11.0092 2.77632 12.6095C3.08018 14.2098 3.8302 15.6799 4.93154 16.8336C6.03288 17.9874 7.43607 18.7732 8.96367 19.0915C10.4913 19.4098 12.0747 19.2464 13.5136 18.622C14.9526 17.9976 16.1825 16.9402 17.0478 15.5835C17.9131 14.2268 18.375 12.6317 18.375 11C18.3726 8.81275 17.5421 6.71581 16.0658 5.16919C14.5895 3.62256 12.5878 2.75255 10.5 2.75Z" fill="#F2F2F2"/>
</svg>
