<svg width="161" height="107" viewBox="0 0 161 107" fill="none" xmlns="http://www.w3.org/2000/svg">
<path d="M153.363 0H31.1171C25.3221 0 20.3809 3.71655 18.5458 8.89061H6.66796C2.9853 8.89061 0 11.8759 0 15.5586V91.1288C0 99.7216 6.9658 106.687 15.5586 106.687H153.363C157.046 106.687 160.031 103.702 160.031 100.019V6.66796C160.031 2.9853 157.046 0 153.363 0ZM13.3359 91.1288V22.2265H17.7812V91.1288C17.7812 92.3543 16.7841 93.3514 15.5586 93.3514C14.3331 93.3514 13.3359 92.3543 13.3359 91.1288ZM146.695 93.3514H30.9566C31.0605 92.6252 31.1171 91.8837 31.1171 91.1288V13.3359H146.695V93.3514ZM47.787 60.0116H85.5722C87.4133 60.0116 88.9061 58.5189 88.9061 56.6777V30.0058C88.9061 28.1646 87.4133 26.6718 85.5722 26.6718H47.787C45.9459 26.6718 44.4531 28.1646 44.4531 30.0058V56.6777C44.4531 58.5189 45.9459 60.0116 47.787 60.0116ZM55.5663 37.7851H77.7929V48.8984H55.5663V37.7851ZM44.4531 76.6815V70.0136C44.4531 68.1724 45.9459 66.6796 47.787 66.6796H85.5722C87.4133 66.6796 88.9061 68.1724 88.9061 70.0136V76.6815C88.9061 78.5227 87.4133 80.0155 85.5722 80.0155H47.787C45.9459 80.0155 44.4531 78.5227 44.4531 76.6815ZM97.7967 76.6815V70.0136C97.7967 68.1724 99.2895 66.6796 101.131 66.6796H130.025C131.866 66.6796 133.359 68.1724 133.359 70.0136V76.6815C133.359 78.5227 131.866 80.0155 130.025 80.0155H101.131C99.2895 80.0155 97.7967 78.5227 97.7967 76.6815ZM97.7967 36.6738V30.0058C97.7967 28.1646 99.2895 26.6718 101.131 26.6718H130.025C131.866 26.6718 133.359 28.1646 133.359 30.0058V36.6738C133.359 38.515 131.866 40.0078 130.025 40.0078H101.131C99.2895 40.0078 97.7967 38.515 97.7967 36.6738ZM97.7967 56.6777V50.0097C97.7967 48.1685 99.2895 46.6757 101.131 46.6757H130.025C131.866 46.6757 133.359 48.1685 133.359 50.0097V56.6777C133.359 58.5189 131.866 60.0116 130.025 60.0116H101.131C99.2895 60.0116 97.7967 58.5189 97.7967 56.6777Z" fill="black"/>
</svg>
