<svg width="24" height="24" viewBox="0 0 24 24" fill="none" xmlns="http://www.w3.org/2000/svg">
<path d="M9.07414 1.50004C7.6358 1.49515 6.22764 1.91238 5.02414 2.70004L9.82414 7.50004C9.984 7.63644 10.1149 7.80344 10.2093 7.99122C10.3036 8.179 10.3594 8.38375 10.3734 8.59343C10.3873 8.8031 10.3592 9.01345 10.2907 9.21209C10.2221 9.41073 10.1145 9.59364 9.97414 9.75004C9.81773 9.89038 9.63482 9.998 9.43618 10.0666C9.23755 10.1351 9.0272 10.1633 8.81752 10.1493C8.60785 10.1353 8.40309 10.0795 8.21532 9.98518C8.02754 9.89085 7.86053 9.7599 7.72414 9.60004L2.77414 4.80004C1.91831 6.05939 1.47296 7.55264 1.49914 9.07504C1.50704 11.0816 2.30765 13.0038 3.72653 14.4226C5.14541 15.8415 7.06756 16.6421 9.07414 16.65C9.73082 16.6536 10.3855 16.5781 11.0241 16.425L16.0491 21.45C16.7553 22.1562 17.713 22.5529 18.7116 22.5529C19.7103 22.5529 20.668 22.1562 21.3741 21.45C22.0803 20.7439 22.477 19.7862 22.477 18.7875C22.477 17.7889 22.0803 16.8312 21.3741 16.125L16.3491 11.1C16.5022 10.4614 16.5777 9.80672 16.5741 9.15004C16.5941 8.15258 16.4148 7.16116 16.0469 6.23383C15.6789 5.3065 15.1296 4.46191 14.4312 3.74951C13.7327 3.0371 12.8992 2.4712 11.9793 2.08495C11.0595 1.69869 10.0718 1.49984 9.07414 1.50004ZM15.0741 9.07504C15.073 9.60797 14.9973 10.1381 14.8491 10.65L14.6241 11.475L15.2241 12.075L20.2491 17.1C20.4631 17.3026 20.6334 17.5469 20.7495 17.8177C20.8656 18.0886 20.925 18.3804 20.9241 18.675C20.9326 18.9708 20.8766 19.2649 20.76 19.5369C20.6435 19.8088 20.4691 20.0522 20.2491 20.25C20.046 20.4633 19.8016 20.6332 19.5309 20.7492C19.2602 20.8652 18.9687 20.925 18.6741 20.925C18.3796 20.925 18.0881 20.8652 17.8174 20.7492C17.5466 20.6332 17.3023 20.4633 17.0991 20.25L12.0741 15.225L11.4741 14.625L10.6491 14.85C10.1372 14.9982 9.60707 15.0739 9.07414 15.075C7.48044 15.0706 5.9496 14.4529 4.79914 13.35C4.21733 12.8026 3.75658 12.1394 3.44657 11.4031C3.13656 10.6668 2.98415 9.87379 2.99914 9.07504C3.00017 8.51747 3.07585 7.96254 3.22414 7.42504L6.52414 10.725C6.80298 11.0285 7.13945 11.2734 7.51391 11.4455C7.88837 11.6175 8.29334 11.7133 8.70521 11.7273C9.11707 11.7413 9.5276 11.6731 9.91286 11.5268C10.2981 11.3805 10.6504 11.1589 10.9491 10.875C11.233 10.5763 11.4545 10.224 11.6009 9.83876C11.7472 9.45351 11.8154 9.04298 11.8014 8.63111C11.7874 8.21924 11.6916 7.81427 11.5195 7.43981C11.3475 7.06535 11.1026 6.72889 10.7991 6.45004L7.49914 3.15004C7.9842 2.99663 8.49042 2.9207 8.99914 2.92504C10.5928 2.92947 12.1237 3.54718 13.2741 4.65004C14.4257 5.83555 15.0711 7.42234 15.0741 9.07504Z" fill="#0E0A1B"/>
</svg>
