<svg width="24" height="24" viewBox="0 0 24 24" fill="none" xmlns="http://www.w3.org/2000/svg">
<path d="M4.979 9.685C2.993 8.891 2 8.494 2 8C2 7.506 2.993 7.11 4.979 6.315L7.787 5.192C9.773 4.397 10.767 4 12 4C13.234 4 14.227 4.397 16.213 5.192L19.021 6.315C21.007 7.109 22 7.506 22 8C22 8.494 21.007 8.89 19.021 9.685L16.213 10.808C14.227 11.604 13.233 12 12 12C10.766 12 9.773 11.603 7.787 10.809L4.98 9.684L4.979 9.685Z" fill="#0E0A1B"/>
<path fill-rule="evenodd" clip-rule="evenodd" d="M2 8C2 8.494 2.993 8.89 4.979 9.685L7.787 10.808C9.773 11.604 10.767 12 12 12C13.234 12 14.227 11.603 16.213 10.809L19.021 9.685C21.007 8.891 22 8.494 22 8C22 7.506 21.007 7.11 19.021 6.315L16.213 5.192C14.227 4.397 13.233 4 12 4C10.766 4 9.773 4.397 7.787 5.192L4.98 6.315C2.993 7.109 2 7.506 2 8Z" fill="#0E0A1B"/>
<path d="M19.021 13.6851L16.213 14.8081C14.227 15.6041 13.233 16.0001 12 16.0001C10.766 16.0001 9.773 15.6031 7.787 14.8091L4.98 13.6841C2.993 12.8911 2 12.4931 2 12.0001C2 11.5551 2.807 11.1881 4.42 10.5391L7.561 11.7951C9.411 12.5351 10.572 13.0001 12 13.0001C13.428 13.0001 14.59 12.5351 16.439 11.7951L19.579 10.5391C21.194 11.1891 22 11.5551 22 12.0001C22 12.4931 21.007 12.8901 19.021 13.6851Z" fill="#0E0A1B"/>
<path d="M19.021 17.6851L16.213 18.8081C14.227 19.6031 13.233 20.0001 12 20.0001C10.766 20.0001 9.773 19.6031 7.787 18.8081L4.98 17.6851C2.993 16.8901 2 16.4931 2 16.0001C2 15.5551 2.807 15.1881 4.42 14.5391L7.561 15.7951C9.411 16.5351 10.572 17.0001 12 17.0001C13.428 17.0001 14.59 16.5351 16.439 15.7951L19.579 14.5391C21.193 15.1891 22 15.5551 22 15.9991C22 16.4931 21.007 16.8901 19.021 17.6851Z" fill="#0E0A1B"/>
</svg>
