<?xml version="1.0" standalone="no"?>
<!DOCTYPE svg PUBLIC "-//W3C//DTD SVG 20010904//EN"
 "http://www.w3.org/TR/2001/REC-SVG-20010904/DTD/svg10.dtd">
<svg version="1.0" xmlns="http://www.w3.org/2000/svg"
 width="200.000000pt" height="200.000000pt" viewBox="0 0 200.000000 200.000000"
 preserveAspectRatio="xMidYMid meet">

<g transform="translate(0.000000,200.000000) scale(0.100000,-0.100000)"
fill="#000000" stroke="none">
<path d="M105 1976 c-35 -15 -83 -67 -90 -99 -3 -12 -4 -414 -3 -894 3 -862 3
-872 24 -899 11 -15 33 -37 48 -48 27 -21 37 -21 644 -21 l617 0 34 24 c63 45
71 80 71 311 l0 205 256 255 c141 140 262 269 270 287 38 88 -8 202 -101 250
-36 19 -122 21 -155 3 -14 -7 -80 -67 -147 -133 l-123 -121 0 234 0 234 -212
213 -212 213 -446 0 c-347 -1 -452 -4 -475 -14z m835 -269 c0 -140 3 -177 16
-195 15 -21 20 -22 200 -22 l184 0 0 -252 0 -253 -246 -246 -246 -246 -29
-124 c-34 -149 -35 -171 -9 -194 20 -18 24 -17 163 13 l142 32 113 112 112
113 0 -144 c0 -120 -3 -147 -17 -163 -15 -17 -47 -18 -594 -18 -512 0 -579 2
-593 16 -14 14 -16 106 -16 864 0 758 2 850 16 864 13 14 65 16 410 16 l394 0
0 -173z m215 -7 l100 -100 -103 0 -102 0 0 100 c0 55 1 100 3 100 1 0 47 -45
102 -100z m710 -483 c36 -51 37 -50 -398 -485 l-413 -413 -63 -15 c-35 -8 -66
-13 -68 -10 -2 2 1 33 8 68 l12 63 406 408 c223 225 415 412 426 416 26 11 72
-6 90 -32z"/>
<path d="M256 1604 c-23 -22 -20 -60 6 -78 19 -13 60 -16 248 -16 188 0 229 3
248 16 27 18 29 55 4 77 -16 15 -49 17 -255 17 -201 0 -238 -2 -251 -16z"/>
<path d="M250 1289 c-16 -30 -4 -68 26 -79 15 -6 205 -10 459 -10 l434 0 28
24 c27 24 27 26 13 53 l-16 28 -466 3 c-466 2 -467 2 -478 -19z"/>
<path d="M262 994 c-26 -18 -29 -56 -6 -78 14 -14 70 -16 474 -16 l459 0 15
22 c21 30 20 44 -4 68 -19 19 -33 20 -468 20 -389 0 -450 -2 -470 -16z"/>
<path d="M257 682 c-22 -24 -21 -55 1 -75 16 -15 48 -17 243 -17 246 0 262 3
262 55 0 52 -16 55 -263 55 -207 0 -228 -2 -243 -18z"/>
<path d="M256 374 c-23 -22 -20 -60 6 -78 18 -13 53 -16 179 -16 138 0 158 2
172 18 20 22 22 63 5 80 -8 8 -63 12 -179 12 -139 0 -170 -3 -183 -16z"/>
</g>
</svg>
